<svg xmlns="http://www.w3.org/2000/svg" xmlns:v="https://svgstorm.com"
viewBox = "0 0 1024 1024"
width="1024"
height="1024">

<g fill="None" fill-opacity="0.0" stroke="#ffffff" stroke-opacity="1.00" stroke-width="0.3"><path d="
M 426.00 709.00 
C 425.91 724.67 426.12 739.22 426.00 755.00 C 425.88 770.78 426.23 784.82 426.00 801.00 C 425.77 817.18 448.01 809.82 461.00 811.00 C 473.99 812.18 492.17 809.98 505.00 809.00 C 517.82 808.02 531.35 804.06 543.33 801.33 C 555.31 798.60 566.08 794.40 576.98 789.98 C 587.87 785.55 598.03 780.68 607.92 774.92 C 617.82 769.16 627.07 763.57 636.25 757.25 C 645.44 750.94 652.91 744.51 661.25 737.25 C 669.59 729.99 677.29 722.90 684.25 714.25 C 691.20 705.60 698.09 697.55 704.08 688.08 C 710.06 678.60 715.10 669.62 720.23 659.23 C 725.36 648.84 729.93 638.35 734.02 627.02 C 738.12 615.70 741.62 603.87 744.67 591.67 C 747.72 579.47 749.68 566.97 752.00 554.00 C 754.32 541.03 755.02 525.70 756.01 512.01 C 757.00 498.32 757.49 480.96 757.00 467.00 C 756.51 453.04 756.00 438.10 753.98 425.02 C 751.95 411.95 749.80 398.42 746.78 386.22 C 743.76 374.03 739.97 362.38 735.77 351.23 C 731.57 340.08 726.07 331.29 720.77 321.23 C 715.47 311.17 708.95 302.63 702.25 293.75 C 695.55 284.88 688.25 277.66 680.25 269.75 C 672.25 261.84 665.17 255.46 656.08 248.92 C 646.99 242.38 638.11 236.38 627.70 231.31 C 617.28 226.23 607.60 220.52 596.02 216.98 C 584.44 213.43 573.82 209.16 561.00 207.00 C 548.18 204.83 533.97 202.70 520.00 202.00 C 506.03 201.30 488.48 202.37 474.00 202.00 C 459.52 201.63 443.54 202.28 429.00 202.00 C 414.46 201.72 397.20 202.37 383.00 202.00 C 368.80 201.63 354.73 204.60 342.01 207.01 C 329.29 209.42 318.37 212.85 307.07 217.07 C 295.78 221.29 286.02 226.28 276.08 232.08 C 266.13 237.87 257.41 243.67 248.75 250.75 C 240.08 257.82 232.77 263.83 225.25 272.25 C 217.73 280.67 210.93 288.15 204.30 297.30 C 197.68 306.46 192.47 315.73 186.92 325.92 C 181.38 336.12 177.73 346.09 173.31 357.31 C 168.88 368.52 165.56 380.57 162.98 392.98 C 160.40 405.38 158.35 419.82 157.00 433.00 C 155.65 446.18 155.78 462.83 157.00 476.00 C 158.22 489.17 159.30 504.48 162.22 516.78 C 165.15 529.08 169.19 540.46 173.22 551.78 C 177.26 563.09 181.76 572.66 187.08 582.92 C 192.39 593.19 197.76 602.52 204.25 611.75 C 210.73 620.99 217.48 628.48 225.25 636.75 C 233.02 645.02 240.04 651.25 248.75 658.25 C 257.46 665.25 265.75 671.75 275.77 677.23 C 285.79 682.71 295.15 688.46 306.31 692.69 C 317.46 696.93 327.87 701.02 340.33 703.67 C 352.79 706.32 367.31 708.52 381.00 709.00 C 394.69 709.48 411.98 708.64 426.00 709.00
M 484.00 749.00 
C 484.00 734.33 484.00 719.67 484.00 705.00
C 550.84 696.89 610.13 655.58 636.31 590.31 C 662.48 525.03 659.17 436.00 616.75 376.25 C 574.34 316.49 500.64 288.57 427.00 298.00
C 427.83 359.69 425.88 411.41 426.00 467.00 C 426.12 522.59 425.77 576.75 427.00 631.00
C 436.72 629.13 449.15 630.54 459.00 630.00 C 468.85 629.46 484.73 634.15 484.00 622.00 C 483.27 609.85 484.33 600.52 484.00 589.00 C 483.67 577.48 484.15 567.24 484.00 556.00 C 483.85 544.76 484.07 534.11 484.00 523.00 C 483.93 511.89 484.03 501.06 484.00 490.00 C 483.97 478.94 484.01 468.05 484.00 457.00 C 483.99 445.95 484.01 435.07 484.00 424.00 C 483.99 412.93 484.00 402.14 484.00 391.00 C 484.00 379.86 484.00 368.19 484.00 357.00
C 513.59 361.55 539.86 374.92 560.75 398.25 C 581.64 421.58 592.37 449.57 595.93 481.07 C 599.48 512.57 594.80 552.54 578.70 579.70 C 562.59 606.85 546.89 622.98 517.92 636.92 C 488.96 650.87 444.94 649.28 412.00 650.00 C 379.06 650.72 341.53 644.93 314.31 629.70 C 287.08 614.46 269.39 600.16 251.25 574.75 C 233.10 549.34 223.96 520.47 218.67 489.33 C 213.38 458.19 216.11 414.05 226.99 384.99 C 237.87 355.94 248.93 332.61 271.25 310.25 C 293.57 287.88 314.10 274.77 345.22 266.22 C 376.35 257.68 423.26 262.09 457.07 260.07 C 490.88 258.05 535.13 259.86 565.22 269.78 C 595.32 279.69 616.88 291.50 639.25 313.75 C 661.62 336.01 674.47 357.10 685.32 386.68 C 696.18 416.26 699.69 457.80 699.00 491.00 C 698.31 524.20 693.14 563.84 684.07 594.07 C 675.01 624.31 663.60 648.04 644.08 672.08 C 624.56 696.12 605.32 709.68 578.92 724.92 C 552.53 740.17 515.23 747.98 484.00 749.00 Z"/>
</g>
<g fill="None" fill-opacity="0.0" stroke="#ffffff" stroke-opacity="1.00" stroke-width="0.3"><path d="
M 864.00 202.00 
C 844.33 202.00 824.67 202.00 805.00 202.00
C 804.94 246.41 805.09 292.78 805.00 337.00 C 804.91 381.22 805.16 427.40 805.00 471.00 C 804.84 514.60 805.35 562.73 805.00 605.00 C 804.65 647.27 810.30 688.93 789.75 723.75 C 769.21 758.57 732.26 764.90 695.00 763.00
C 695.00 782.33 695.00 801.67 695.00 821.00
C 722.51 822.54 756.80 819.42 779.77 806.77 C 802.74 794.12 817.88 784.21 833.23 762.23 C 848.58 740.25 857.88 720.22 862.00 692.00 C 866.12 663.78 863.42 627.02 864.00 596.00 C 864.58 564.98 863.74 529.00 864.00 497.00 C 864.27 465.00 863.88 431.44 864.00 399.00 C 864.12 366.56 863.94 332.60 864.00 300.00 C 864.06 267.40 863.95 234.62 864.00 202.00 Z"/>
</g>

<g fill="#ffffff" fill-opacity="1.00" stroke="None">
<path d="
M 426.00 709.00 
C 425.91 724.67 426.12 739.22 426.00 755.00 C 425.88 770.78 426.23 784.82 426.00 801.00 C 425.77 817.18 448.01 809.82 461.00 811.00 C 473.99 812.18 492.17 809.98 505.00 809.00 C 517.82 808.02 531.35 804.06 543.33 801.33 C 555.31 798.60 566.08 794.40 576.98 789.98 C 587.87 785.55 598.03 780.68 607.92 774.92 C 617.82 769.16 627.07 763.57 636.25 757.25 C 645.44 750.94 652.91 744.51 661.25 737.25 C 669.59 729.99 677.29 722.90 684.25 714.25 C 691.20 705.60 698.09 697.55 704.08 688.08 C 710.06 678.60 715.10 669.62 720.23 659.23 C 725.36 648.84 729.93 638.35 734.02 627.02 C 738.12 615.70 741.62 603.87 744.67 591.67 C 747.72 579.47 749.68 566.97 752.00 554.00 C 754.32 541.03 755.02 525.70 756.01 512.01 C 757.00 498.32 757.49 480.96 757.00 467.00 C 756.51 453.04 756.00 438.10 753.98 425.02 C 751.95 411.95 749.80 398.42 746.78 386.22 C 743.76 374.03 739.97 362.38 735.77 351.23 C 731.57 340.08 726.07 331.29 720.77 321.23 C 715.47 311.17 708.95 302.63 702.25 293.75 C 695.55 284.88 688.25 277.66 680.25 269.75 C 672.25 261.84 665.17 255.46 656.08 248.92 C 646.99 242.38 638.11 236.38 627.70 231.31 C 617.28 226.23 607.60 220.52 596.02 216.98 C 584.44 213.43 573.82 209.16 561.00 207.00 C 548.18 204.83 533.97 202.70 520.00 202.00 C 506.03 201.30 488.48 202.37 474.00 202.00 C 459.52 201.63 443.54 202.28 429.00 202.00 C 414.46 201.72 397.20 202.37 383.00 202.00 C 368.80 201.63 354.73 204.60 342.01 207.01 C 329.29 209.42 318.37 212.85 307.07 217.07 C 295.78 221.29 286.02 226.28 276.08 232.08 C 266.13 237.87 257.41 243.67 248.75 250.75 C 240.08 257.82 232.77 263.83 225.25 272.25 C 217.73 280.67 210.93 288.15 204.30 297.30 C 197.68 306.46 192.47 315.73 186.92 325.92 C 181.38 336.12 177.73 346.09 173.31 357.31 C 168.88 368.52 165.56 380.57 162.98 392.98 C 160.40 405.38 158.35 419.82 157.00 433.00 C 155.65 446.18 155.78 462.83 157.00 476.00 C 158.22 489.17 159.30 504.48 162.22 516.78 C 165.15 529.08 169.19 540.46 173.22 551.78 C 177.26 563.09 181.76 572.66 187.08 582.92 C 192.39 593.19 197.76 602.52 204.25 611.75 C 210.73 620.99 217.48 628.48 225.25 636.75 C 233.02 645.02 240.04 651.25 248.75 658.25 C 257.46 665.25 265.75 671.75 275.77 677.23 C 285.79 682.71 295.15 688.46 306.31 692.69 C 317.46 696.93 327.87 701.02 340.33 703.67 C 352.79 706.32 367.31 708.52 381.00 709.00 C 394.69 709.48 411.98 708.64 426.00 709.00
M 484.00 749.00 
C 484.00 734.33 484.00 719.67 484.00 705.00
C 550.84 696.89 610.13 655.58 636.31 590.31 C 662.48 525.03 659.17 436.00 616.75 376.25 C 574.34 316.49 500.64 288.57 427.00 298.00
C 427.83 359.69 425.88 411.41 426.00 467.00 C 426.12 522.59 425.77 576.75 427.00 631.00
C 436.72 629.13 449.15 630.54 459.00 630.00 C 468.85 629.46 484.73 634.15 484.00 622.00 C 483.27 609.85 484.33 600.52 484.00 589.00 C 483.67 577.48 484.15 567.24 484.00 556.00 C 483.85 544.76 484.07 534.11 484.00 523.00 C 483.93 511.89 484.03 501.06 484.00 490.00 C 483.97 478.94 484.01 468.05 484.00 457.00 C 483.99 445.95 484.01 435.07 484.00 424.00 C 483.99 412.93 484.00 402.14 484.00 391.00 C 484.00 379.86 484.00 368.19 484.00 357.00
C 513.59 361.55 539.86 374.92 560.75 398.25 C 581.64 421.58 592.37 449.57 595.93 481.07 C 599.48 512.57 594.80 552.54 578.70 579.70 C 562.59 606.85 546.89 622.98 517.92 636.92 C 488.96 650.87 444.94 649.28 412.00 650.00 C 379.06 650.72 341.53 644.93 314.31 629.70 C 287.08 614.46 269.39 600.16 251.25 574.75 C 233.10 549.34 223.96 520.47 218.67 489.33 C 213.38 458.19 216.11 414.05 226.99 384.99 C 237.87 355.94 248.93 332.61 271.25 310.25 C 293.57 287.88 314.10 274.77 345.22 266.22 C 376.35 257.68 423.26 262.09 457.07 260.07 C 490.88 258.05 535.13 259.86 565.22 269.78 C 595.32 279.69 616.88 291.50 639.25 313.75 C 661.62 336.01 674.47 357.10 685.32 386.68 C 696.18 416.26 699.69 457.80 699.00 491.00 C 698.31 524.20 693.14 563.84 684.07 594.07 C 675.01 624.31 663.60 648.04 644.08 672.08 C 624.56 696.12 605.32 709.68 578.92 724.92 C 552.53 740.17 515.23 747.98 484.00 749.00 Z"/>
</g>
<g fill="#ff0000" fill-opacity="1.00" stroke="None">
<path d="
M 864.00 202.00 
C 844.33 202.00 824.67 202.00 805.00 202.00
C 804.94 246.41 805.09 292.78 805.00 337.00 C 804.91 381.22 805.16 427.40 805.00 471.00 C 804.84 514.60 805.35 562.73 805.00 605.00 C 804.65 647.27 810.30 688.93 789.75 723.75 C 769.21 758.57 732.26 764.90 695.00 763.00
C 695.00 782.33 695.00 801.67 695.00 821.00
C 722.51 822.54 756.80 819.42 779.77 806.77 C 802.74 794.12 817.88 784.21 833.23 762.23 C 848.58 740.25 857.88 720.22 862.00 692.00 C 866.12 663.78 863.42 627.02 864.00 596.00 C 864.58 564.98 863.74 529.00 864.00 497.00 C 864.27 465.00 863.88 431.44 864.00 399.00 C 864.12 366.56 863.94 332.60 864.00 300.00 C 864.06 267.40 863.95 234.62 864.00 202.00 Z"/>
</g>

</svg>